<svg width="30" height="30" viewBox="0 0 30 30" fill="none" xmlns="http://www.w3.org/2000/svg">
<rect width="30" height="30" rx="10" fill="white" fill-opacity="0.1"/>
<path d="M20.9334 15.3534L21.287 14.9998L20.9334 14.6463L16.7784 10.4913C16.769 10.4818 16.7617 10.4672 16.7617 10.4473C16.7617 10.4275 16.769 10.4128 16.7784 10.4034C16.7878 10.394 16.8025 10.3867 16.8223 10.3867C16.8422 10.3867 16.8568 10.394 16.8663 10.4034L21.4188 14.9559C21.4282 14.9653 21.4355 14.98 21.4355 14.9998C21.4355 15.0197 21.4282 15.0343 21.4188 15.0438L16.8663 19.5963C16.8579 19.6047 16.8509 19.6086 16.8455 19.6107C16.8397 19.6131 16.8321 19.6148 16.8223 19.6148C16.8126 19.6148 16.805 19.6131 16.7991 19.6107C16.7938 19.6086 16.7868 19.6047 16.7784 19.5963C16.769 19.5868 16.7617 19.5722 16.7617 19.5523C16.7617 19.5325 16.769 19.5178 16.7784 19.5084L20.9334 15.3534Z" fill="white" stroke="white"/>
<path d="M21.2475 15.5625H8.625C8.3175 15.5625 8.0625 15.3075 8.0625 15C8.0625 14.6925 8.3175 14.4375 8.625 14.4375H21.2475C21.555 14.4375 21.81 14.6925 21.81 15C21.81 15.3075 21.555 15.5625 21.2475 15.5625Z" fill="white"/>
</svg>
