<svg width="18" height="18" viewBox="0 0 18 18" fill="none" xmlns="http://www.w3.org/2000/svg">
<mask id="path-1-inside-1_2049_2536" fill="white">
<path d="M13.6425 13.3125H5.65499C4.91249 13.3125 4.19999 12.9975 3.69749 12.45C3.19499 11.9025 2.94 11.1675 3 10.425L3.6225 2.955C3.645 2.7225 3.56249 2.4975 3.40499 2.325C3.24749 2.1525 3.03 2.0625 2.7975 2.0625H1.5C1.1925 2.0625 0.9375 1.8075 0.9375 1.5C0.9375 1.1925 1.1925 0.9375 1.5 0.9375H2.805C3.3525 0.9375 3.87 1.17 4.2375 1.5675C4.44 1.7925 4.59 2.055 4.6725 2.3475H14.04C14.7975 2.3475 15.495 2.6475 16.005 3.1875C16.5075 3.735 16.7625 4.4475 16.7025 5.205L16.2975 10.83C16.215 12.2025 15.015 13.3125 13.6425 13.3125ZM4.71 3.465L4.125 10.515C4.0875 10.95 4.23 11.3625 4.5225 11.685C4.815 12.0075 5.22 12.18 5.65499 12.18H13.6425C14.4225 12.18 15.1275 11.52 15.1875 10.74L15.5925 5.11501C15.6225 4.67251 15.48 4.25251 15.1875 3.94501C14.895 3.63001 14.49 3.45749 14.0475 3.45749H4.71V3.465Z"/>
</mask>
<path d="M13.6425 13.3125H5.65499C4.91249 13.3125 4.19999 12.9975 3.69749 12.45C3.19499 11.9025 2.94 11.1675 3 10.425L3.6225 2.955C3.645 2.7225 3.56249 2.4975 3.40499 2.325C3.24749 2.1525 3.03 2.0625 2.7975 2.0625H1.5C1.1925 2.0625 0.9375 1.8075 0.9375 1.5C0.9375 1.1925 1.1925 0.9375 1.5 0.9375H2.805C3.3525 0.9375 3.87 1.17 4.2375 1.5675C4.44 1.7925 4.59 2.055 4.6725 2.3475H14.04C14.7975 2.3475 15.495 2.6475 16.005 3.1875C16.5075 3.735 16.7625 4.4475 16.7025 5.205L16.2975 10.83C16.215 12.2025 15.015 13.3125 13.6425 13.3125ZM4.71 3.465L4.125 10.515C4.0875 10.95 4.23 11.3625 4.5225 11.685C4.815 12.0075 5.22 12.18 5.65499 12.18H13.6425C14.4225 12.18 15.1275 11.52 15.1875 10.74L15.5925 5.11501C15.6225 4.67251 15.48 4.25251 15.1875 3.94501C14.895 3.63001 14.49 3.45749 14.0475 3.45749H4.71V3.465Z" fill="#757B82"/>
<path d="M3 10.425L1.80414 10.3253L1.8039 10.3283L3 10.425ZM3.6225 2.955L2.42808 2.83941L2.42731 2.84738L2.42665 2.85535L3.6225 2.955ZM4.2375 1.5675L5.12945 0.76474L5.12407 0.758769L5.11862 0.752871L4.2375 1.5675ZM4.6725 2.3475L3.51756 2.67326L3.76414 3.5475H4.6725V2.3475ZM16.005 3.1875L16.8891 2.37608L16.8833 2.36978L16.8774 2.36355L16.005 3.1875ZM16.7025 5.205L15.5062 5.11025L15.5056 5.11882L16.7025 5.205ZM16.2975 10.83L15.1006 10.7438L15.1001 10.7509L15.0997 10.758L16.2975 10.83ZM4.71 3.465L5.90589 3.56423L5.91 3.5147V3.465H4.71ZM4.125 10.515L5.32057 10.6181L5.32089 10.6142L4.125 10.515ZM15.1875 10.74L16.384 10.832L16.3844 10.8262L15.1875 10.74ZM15.5925 5.11501L16.7894 5.20118L16.7897 5.19618L15.5925 5.11501ZM15.1875 3.94501L14.3081 4.76155L14.3131 4.76684L14.318 4.77206L15.1875 3.94501ZM4.71 3.45749V2.25749H3.51V3.45749H4.71ZM13.6425 12.1125H5.65499V14.5125H13.6425V12.1125ZM5.65499 12.1125C5.25076 12.1125 4.85827 11.9401 4.58158 11.6386L2.81341 13.2614C3.54172 14.055 4.57423 14.5125 5.65499 14.5125V12.1125ZM4.58158 11.6386C4.30335 11.3354 4.16319 10.9289 4.1961 10.5217L1.8039 10.3283C1.71681 11.4061 2.08664 12.4696 2.81341 13.2614L4.58158 11.6386ZM4.19585 10.5247L4.81836 3.05466L2.42665 2.85535L1.80415 10.3253L4.19585 10.5247ZM4.81692 3.07059C4.87473 2.47321 4.65873 1.91844 4.29118 1.51588L2.51881 3.13413C2.46626 3.07657 2.41527 2.97179 2.42808 2.83941L4.81692 3.07059ZM4.29118 1.51588C3.89282 1.07958 3.34663 0.8625 2.7975 0.8625V3.2625C2.71337 3.2625 2.60217 3.22543 2.51881 3.13413L4.29118 1.51588ZM2.7975 0.8625H1.5V3.2625H2.7975V0.8625ZM1.5 0.8625C1.85524 0.8625 2.1375 1.14476 2.1375 1.5H-0.2625C-0.2625 2.47024 0.529758 3.2625 1.5 3.2625V0.8625ZM2.1375 1.5C2.1375 1.85524 1.85524 2.1375 1.5 2.1375V-0.2625C0.529758 -0.2625 -0.2625 0.529758 -0.2625 1.5H2.1375ZM1.5 2.1375H2.805V-0.2625H1.5V2.1375ZM2.805 2.1375C3.01071 2.1375 3.21107 2.22497 3.35637 2.38212L5.11862 0.752871C4.52892 0.115028 3.6943 -0.2625 2.805 -0.2625V2.1375ZM3.34554 2.37025C3.43335 2.46782 3.48829 2.56948 3.51756 2.67326L5.82744 2.02175C5.69171 1.54053 5.44664 1.11718 5.12945 0.76474L3.34554 2.37025ZM4.6725 3.5475H14.04V1.1475H4.6725V3.5475ZM14.04 3.5475C14.4716 3.5475 14.8522 3.71454 15.1326 4.01145L16.8774 2.36355C16.1378 1.58046 15.1234 1.1475 14.04 1.1475V3.5475ZM15.1209 3.99892C15.4027 4.30592 15.5394 4.69187 15.5062 5.11025L17.8988 5.29975C17.9856 4.20313 17.6123 3.16408 16.8891 2.37608L15.1209 3.99892ZM15.5056 5.11882L15.1006 10.7438L17.4944 10.9162L17.8994 5.29118L15.5056 5.11882ZM15.0997 10.758C15.0559 11.4855 14.3917 12.1125 13.6425 12.1125V14.5125C15.6383 14.5125 17.3741 12.9195 17.4953 10.902L15.0997 10.758ZM3.51411 3.36576L2.92911 10.4158L5.32089 10.6142L5.90589 3.56423L3.51411 3.36576ZM2.92943 10.4119C2.86274 11.1856 3.12103 11.926 3.63364 12.4912L5.41136 10.8788C5.33897 10.799 5.31226 10.7144 5.32057 10.6181L2.92943 10.4119ZM3.63364 12.4912C4.16231 13.0741 4.8946 13.38 5.65499 13.38V10.98C5.54539 10.98 5.46769 10.9409 5.41136 10.8788L3.63364 12.4912ZM5.65499 13.38H13.6425V10.98H5.65499V13.38ZM13.6425 13.38C15.0581 13.38 16.2765 12.2287 16.384 10.832L13.991 10.648C13.9866 10.7053 13.953 10.7943 13.8662 10.8752C13.7796 10.9561 13.6928 10.98 13.6425 10.98V13.38ZM16.3844 10.8262L16.7894 5.20118L14.3956 5.02883L13.9906 10.6538L16.3844 10.8262ZM16.7897 5.19618C16.8407 4.44452 16.5985 3.68729 16.057 3.11795L14.318 4.77206C14.3615 4.81773 14.4043 4.90049 14.3952 5.03384L16.7897 5.19618ZM16.0669 3.12847C15.5385 2.55947 14.8105 2.25749 14.0475 2.25749V4.65749C14.1695 4.65749 14.2515 4.70054 14.3081 4.76155L16.0669 3.12847ZM14.0475 2.25749H4.71V4.65749H14.0475V2.25749ZM3.51 3.45749V3.465H5.91V3.45749H3.51Z" fill="#757B82" mask="url(#path-1-inside-1_2049_2536)"/>
<mask id="path-3-inside-2_2049_2536" fill="white">
<path d="M12.1875 17.0625C11.3625 17.0625 10.6875 16.3875 10.6875 15.5625C10.6875 14.7375 11.3625 14.0625 12.1875 14.0625C13.0125 14.0625 13.6875 14.7375 13.6875 15.5625C13.6875 16.3875 13.0125 17.0625 12.1875 17.0625ZM12.1875 15.1875C11.9775 15.1875 11.8125 15.3525 11.8125 15.5625C11.8125 15.7725 11.9775 15.9375 12.1875 15.9375C12.3975 15.9375 12.5625 15.7725 12.5625 15.5625C12.5625 15.3525 12.3975 15.1875 12.1875 15.1875Z"/>
</mask>
<path d="M12.1875 17.0625C11.3625 17.0625 10.6875 16.3875 10.6875 15.5625C10.6875 14.7375 11.3625 14.0625 12.1875 14.0625C13.0125 14.0625 13.6875 14.7375 13.6875 15.5625C13.6875 16.3875 13.0125 17.0625 12.1875 17.0625ZM12.1875 15.1875C11.9775 15.1875 11.8125 15.3525 11.8125 15.5625C11.8125 15.7725 11.9775 15.9375 12.1875 15.9375C12.3975 15.9375 12.5625 15.7725 12.5625 15.5625C12.5625 15.3525 12.3975 15.1875 12.1875 15.1875Z" fill="#757B82"/>
<path d="M12.1875 15.8625C12.0252 15.8625 11.8875 15.7248 11.8875 15.5625H9.4875C9.4875 17.0502 10.6998 18.2625 12.1875 18.2625V15.8625ZM11.8875 15.5625C11.8875 15.4002 12.0252 15.2625 12.1875 15.2625V12.8625C10.6998 12.8625 9.4875 14.0748 9.4875 15.5625H11.8875ZM12.1875 15.2625C12.3498 15.2625 12.4875 15.4002 12.4875 15.5625H14.8875C14.8875 14.0748 13.6752 12.8625 12.1875 12.8625V15.2625ZM12.4875 15.5625C12.4875 15.7248 12.3498 15.8625 12.1875 15.8625V18.2625C13.6752 18.2625 14.8875 17.0502 14.8875 15.5625H12.4875ZM12.1875 13.9875C11.3148 13.9875 10.6125 14.6898 10.6125 15.5625H13.0125C13.0125 16.0152 12.6402 16.3875 12.1875 16.3875V13.9875ZM10.6125 15.5625C10.6125 16.4352 11.3148 17.1375 12.1875 17.1375V14.7375C12.6402 14.7375 13.0125 15.1098 13.0125 15.5625H10.6125ZM12.1875 17.1375C13.0602 17.1375 13.7625 16.4352 13.7625 15.5625H11.3625C11.3625 15.1098 11.7348 14.7375 12.1875 14.7375V17.1375ZM13.7625 15.5625C13.7625 14.6898 13.0602 13.9875 12.1875 13.9875V16.3875C11.7348 16.3875 11.3625 16.0152 11.3625 15.5625H13.7625Z" fill="#757B82" mask="url(#path-3-inside-2_2049_2536)"/>
<mask id="path-5-inside-3_2049_2536" fill="white">
<path d="M6.1875 17.0625C5.3625 17.0625 4.6875 16.3875 4.6875 15.5625C4.6875 14.7375 5.3625 14.0625 6.1875 14.0625C7.0125 14.0625 7.6875 14.7375 7.6875 15.5625C7.6875 16.3875 7.0125 17.0625 6.1875 17.0625ZM6.1875 15.1875C5.9775 15.1875 5.8125 15.3525 5.8125 15.5625C5.8125 15.7725 5.9775 15.9375 6.1875 15.9375C6.3975 15.9375 6.5625 15.7725 6.5625 15.5625C6.5625 15.3525 6.3975 15.1875 6.1875 15.1875Z"/>
</mask>
<path d="M6.1875 17.0625C5.3625 17.0625 4.6875 16.3875 4.6875 15.5625C4.6875 14.7375 5.3625 14.0625 6.1875 14.0625C7.0125 14.0625 7.6875 14.7375 7.6875 15.5625C7.6875 16.3875 7.0125 17.0625 6.1875 17.0625ZM6.1875 15.1875C5.9775 15.1875 5.8125 15.3525 5.8125 15.5625C5.8125 15.7725 5.9775 15.9375 6.1875 15.9375C6.3975 15.9375 6.5625 15.7725 6.5625 15.5625C6.5625 15.3525 6.3975 15.1875 6.1875 15.1875Z" fill="#757B82"/>
<path d="M6.1875 15.8625C6.02524 15.8625 5.8875 15.7248 5.8875 15.5625H3.4875C3.4875 17.0502 4.69976 18.2625 6.1875 18.2625V15.8625ZM5.8875 15.5625C5.8875 15.4002 6.02524 15.2625 6.1875 15.2625V12.8625C4.69976 12.8625 3.4875 14.0748 3.4875 15.5625H5.8875ZM6.1875 15.2625C6.34976 15.2625 6.4875 15.4002 6.4875 15.5625H8.8875C8.8875 14.0748 7.67524 12.8625 6.1875 12.8625V15.2625ZM6.4875 15.5625C6.4875 15.7248 6.34976 15.8625 6.1875 15.8625V18.2625C7.67524 18.2625 8.8875 17.0502 8.8875 15.5625H6.4875ZM6.1875 13.9875C5.31476 13.9875 4.6125 14.6898 4.6125 15.5625H7.0125C7.0125 16.0152 6.64024 16.3875 6.1875 16.3875V13.9875ZM4.6125 15.5625C4.6125 16.4352 5.31476 17.1375 6.1875 17.1375V14.7375C6.64024 14.7375 7.0125 15.1098 7.0125 15.5625H4.6125ZM6.1875 17.1375C7.06024 17.1375 7.7625 16.4352 7.7625 15.5625H5.3625C5.3625 15.1098 5.73476 14.7375 6.1875 14.7375V17.1375ZM7.7625 15.5625C7.7625 14.6898 7.06024 13.9875 6.1875 13.9875V16.3875C5.73476 16.3875 5.3625 16.0152 5.3625 15.5625H7.7625Z" fill="#757B82" mask="url(#path-5-inside-3_2049_2536)"/>
<mask id="path-7-inside-4_2049_2536" fill="white">
<path d="M15.75 6.5625H6.75C6.4425 6.5625 6.1875 6.3075 6.1875 6C6.1875 5.6925 6.4425 5.4375 6.75 5.4375H15.75C16.0575 5.4375 16.3125 5.6925 16.3125 6C16.3125 6.3075 16.0575 6.5625 15.75 6.5625Z"/>
</mask>
<path d="M15.75 6.5625H6.75C6.4425 6.5625 6.1875 6.3075 6.1875 6C6.1875 5.6925 6.4425 5.4375 6.75 5.4375H15.75C16.0575 5.4375 16.3125 5.6925 16.3125 6C16.3125 6.3075 16.0575 6.5625 15.75 6.5625Z" fill="#757B82"/>
<path d="M15.75 5.3625H6.75V7.7625H15.75V5.3625ZM6.75 5.3625C7.10524 5.3625 7.3875 5.64476 7.3875 6H4.9875C4.9875 6.97024 5.77976 7.7625 6.75 7.7625V5.3625ZM7.3875 6C7.3875 6.35524 7.10524 6.6375 6.75 6.6375V4.2375C5.77976 4.2375 4.9875 5.02976 4.9875 6H7.3875ZM6.75 6.6375H15.75V4.2375H6.75V6.6375ZM15.75 6.6375C15.3948 6.6375 15.1125 6.35524 15.1125 6H17.5125C17.5125 5.02976 16.7202 4.2375 15.75 4.2375V6.6375ZM15.1125 6C15.1125 5.64476 15.3948 5.3625 15.75 5.3625V7.7625C16.7202 7.7625 17.5125 6.97024 17.5125 6H15.1125Z" fill="#757B82" mask="url(#path-7-inside-4_2049_2536)"/>
</svg>
