<svg width="56" height="56" viewBox="0 0 56 56" fill="none" xmlns="http://www.w3.org/2000/svg">
<rect width="56" height="56" rx="6" fill="#FFDB45"/>
<path d="M31.1081 34.2216C31.1081 36.975 29.9103 39.4639 27.997 41.1594C26.3481 42.6527 24.1703 43.555 21.7747 43.555C16.6259 43.555 12.4414 39.3705 12.4414 34.2216C12.4414 30.9579 14.1351 28.0797 16.6804 26.4163C16.9344 26.2503 17.2699 26.3691 17.3963 26.6449C18.8294 29.7736 21.6009 32.1248 24.917 33.0239C25.897 33.3039 26.9236 33.4439 27.997 33.4439C28.8618 33.4439 29.685 33.3503 30.4836 33.1801C30.7705 33.119 31.0572 33.3041 31.0818 33.5964C31.0993 33.8046 31.1081 34.0153 31.1081 34.2216Z" fill="#1E1E1E"/>
<path d="M37.3307 21.7777C37.3307 22.991 37.0974 24.1577 36.6774 25.2154C35.6041 27.9221 33.3018 30.0066 30.4552 30.7843C29.6774 31.0021 28.853 31.111 27.9974 31.111C27.1418 31.111 26.3174 31.0021 25.5396 30.7843C22.693 30.0066 20.3907 27.9221 19.3174 25.2154C18.8974 24.1577 18.6641 22.991 18.6641 21.7777C18.6641 16.6288 22.8485 12.4443 27.9974 12.4443C33.1463 12.4443 37.3307 16.6288 37.3307 21.7777Z" fill="#1E1E1E"/>
<path d="M43.5525 34.2216C43.5525 39.3705 39.3681 43.555 34.2192 43.555C32.9252 43.555 31.6861 43.2914 30.5665 42.8103C30.2533 42.6758 30.1943 42.2681 30.4248 42.0169C32.3619 39.9054 33.4414 37.1302 33.4414 34.2216C33.4414 33.6927 33.3947 33.1639 33.317 32.6661L33.2977 32.5464C33.2629 32.3307 33.3728 32.1183 33.5651 32.0144C35.7659 30.8258 37.5456 28.9487 38.5979 26.6458C38.7241 26.3696 39.0599 26.2505 39.3141 26.4167C41.8591 28.0802 43.5525 30.9582 43.5525 34.2216Z" fill="#1E1E1E"/>
</svg>
