<svg width="36" height="36" viewBox="0 0 36 36" fill="none" xmlns="http://www.w3.org/2000/svg">
<rect width="36" height="36" rx="6" fill="#FFDB45"/>
<path d="M20 22C20 23.77 19.23 25.37 18 26.46C16.94 27.42 15.54 28 14 28C10.69 28 8 25.31 8 22C8 19.9753 9.01397 18.1814 10.5554 17.0973C10.8036 16.9228 11.1393 17.0422 11.2732 17.3144C12.2171 19.2332 13.9542 20.6699 16.02 21.23C16.65 21.41 17.31 21.5 18 21.5C18.4872 21.5 18.9539 21.4538 19.4074 21.3687C19.6958 21.3146 19.9828 21.4995 19.9955 21.7925C19.9985 21.862 20 21.9314 20 22Z" fill="#1E1E1E"/>
<path d="M24 14C24 14.78 23.85 15.53 23.58 16.21C22.89 17.95 21.41 19.29 19.58 19.79C19.08 19.93 18.55 20 18 20C17.45 20 16.92 19.93 16.42 19.79C14.59 19.29 13.11 17.95 12.42 16.21C12.15 15.53 12 14.78 12 14C12 10.69 14.69 8 18 8C21.31 8 24 10.69 24 14Z" fill="#1E1E1E"/>
<path d="M28 22C28 25.31 25.31 28 22 28C21.2555 28 20.5393 27.8643 19.8811 27.6141C19.5624 27.4929 19.503 27.0851 19.7248 26.8262C20.8668 25.4938 21.5 23.786 21.5 22C21.5 21.66 21.47 21.32 21.42 21C21.3902 20.8155 21.4844 20.6342 21.6478 20.5437C22.9719 19.8107 24.0532 18.6875 24.727 17.3153C24.8609 17.0427 25.1968 16.923 25.4452 17.0977C26.9863 18.1818 28 19.9755 28 22Z" fill="#1E1E1E"/>
</svg>
