<svg width="18" height="18" viewBox="0 0 18 18" fill="none" xmlns="http://www.w3.org/2000/svg">
<path d="M14.355 14.625C15.6825 13.275 16.5 11.415 16.5 9.375C16.5 5.235 13.14 1.875 9 1.875C4.86 1.875 1.5 5.235 1.5 9.375C1.5 11.415 2.31 13.26 3.63 14.6175" stroke="#757B82" stroke-width="1.5" stroke-miterlimit="10" stroke-linecap="round" stroke-linejoin="round"/>
<path d="M9.00009 16.125C10.4001 16.125 11.5351 14.99 11.5351 13.59C11.5351 12.19 10.4001 11.055 9.00009 11.055C7.60005 11.055 6.46509 12.19 6.46509 13.59C6.46509 14.99 7.60005 16.125 9.00009 16.125Z" stroke="#757B82" stroke-width="1.3" stroke-miterlimit="10" stroke-linecap="round" stroke-linejoin="round"/>
<path d="M11.4375 9H12C12.615 9 13.125 8.4975 13.125 7.875C13.125 7.26 12.615 6.75 12 6.75C11.385 6.75 10.875 7.2525 10.875 7.875V8.4375C10.875 8.745 11.13 9 11.4375 9Z" stroke="#757B82" stroke-width="1.3" stroke-miterlimit="10" stroke-linecap="round" stroke-linejoin="round"/>
</svg>
